G04 Layer: BottomLayer*
G04 EasyEDA v6.5.44, 2024-07-12 10:06:21*
G04 880f1e11bed849ff8ee5fc4c38d7cf29,b7e772dc9bff4a4eb588b4682febb03c,10*
G04 Gerber Generator version 0.2*
G04 Scale: 100 percent, Rotated: No, Reflected: No *
G04 Dimensions in millimeters *
G04 leading zeros omitted , absolute positions ,4 integer and 5 decimal *
%FSLAX45Y45*%
%MOMM*%

%ADD10C,1.2000*%
%ADD11C,2.0000*%

%LPD*%
D10*
X3013456Y3949700D02*
G01*
X3013456Y2367785D01*
X3590541Y1790700D01*
X3590541Y1790700D02*
G01*
X3996943Y1790700D01*
X4533900Y2327655D01*
X3514343Y3949700D02*
G01*
X3514343Y3848102D01*
X4533900Y2828546D01*
X2073658Y1790700D02*
G01*
X1676400Y1790700D01*
X1016000Y2451100D01*
X1016000Y2959100D02*
G01*
X1016000Y2980941D01*
X1984758Y3949700D01*
X2073656Y1790700D02*
G01*
X2073656Y3537712D01*
X2485643Y3949700D01*
X3089656Y1790700D02*
G01*
X2959100Y1790700D01*
X2463800Y1295400D01*
X393700Y1295400D01*
X393700Y2844800D01*
X1016000Y3467100D01*
X2574543Y1790700D02*
G01*
X2451100Y1790700D01*
X2197100Y1536700D01*
X723900Y1536700D01*
X596900Y1663700D01*
X596900Y2540000D01*
X1016000Y2959100D01*
X4533900Y2828544D02*
G01*
X5016500Y2828544D01*
X5016500Y1612900D01*
X4635500Y1231900D01*
X3340100Y1231900D01*
X3009900Y1562100D01*
X3009900Y1710944D01*
X3089656Y1790700D01*
D11*
G01*
X1016000Y2451100D03*
G01*
X1016000Y3467100D03*
G01*
X1016000Y2959100D03*
G01*
X3089656Y1790700D03*
G01*
X3590543Y1790700D03*
G01*
X2073656Y1790700D03*
G01*
X2574543Y1790700D03*
G01*
X4533900Y2327655D03*
G01*
X4533900Y2828544D03*
G01*
X2485643Y3949700D03*
G01*
X1984756Y3949700D03*
G01*
X3514343Y3949700D03*
G01*
X3013456Y3949700D03*
M02*
